<svg xmlns="http://www.w3.org/2000/svg" viewBox="0 0 200 200" width="200" height="200" role="img" aria-label="Warkop Kepank">
  
  <circle cx="100" cy="100" r="86" fill="none" stroke="#2a1a10" stroke-width="9"/>
  <g transform="translate(100,102) scale(1.34) translate(-100,-103)">
  <g transform="translate(100,103)">
    <path d="M-21 -46 q7 7 0 14 q-7 7 0 14" stroke="#2a1a10" stroke-width="4.4" fill="none" stroke-linecap="round"/>
    <path d="M0 -50 q7 7 0 14 q-7 7 0 14"   stroke="#2a1a10" stroke-width="4.4" fill="none" stroke-linecap="round"/>
    <path d="M21 -46 q7 7 0 14 q-7 7 0 14"  stroke="#2a1a10" stroke-width="4.4" fill="none" stroke-linecap="round"/>
    <path d="M-31 -5 h58 v17 a29 29 0 0 1 -58 0 z" fill="#2a1a10"/>
    <path d="M29 0 a13.5 13.5 0 0 1 0 27" stroke="#2a1a10" stroke-width="7" fill="none" stroke-linecap="round"/>
    <rect x="-40" y="31" width="76" height="6.5" rx="3.25" fill="#2a1a10"/>
  </g></g>
</svg>
